<?xml version="1.0" encoding="UTF-8"?>
<svg id="Ebene_1" data-name="Ebene 1" xmlns="http://www.w3.org/2000/svg" viewBox="0 0 850.39 189.24">
  <defs>
    <style>
      .cls-1 {
        fill: #8496f8;
      }

      .cls-2 {
        fill: #222221;
      }
    </style>
  </defs>
  <g>
    <path class="cls-2" d="M84.95,87.92l12.9-60.75c.04-.18.22-.31.4-.31h11.28c.22,0,.35.13.31.39l-11.06,51.84h31.65c.22,0,.35.13.31.4l-1.8,8.51c-.04.17-.18.31-.35.31h-43.32c-.22,0-.35-.13-.31-.4"/>
    <path class="cls-2" d="M195.5,27.22v34.76c0,19.27-11.1,28-27.57,28-13.74,0-26.9-6.15-26.9-28.05V27.22c0-.22.13-.35.35-.35h10.93c.22,0,.35.13.35.35v34.67c0,13.69,6.98,18.7,16.72,18.7s16.28-4.96,16.28-19.01V27.22c0-.22.13-.35.35-.35h9.13c.22,0,.35.13.35.35"/>
    <path class="cls-2" d="M207.86,87.96V27.22c0-.22.13-.35.35-.35h10.93c.22,0,.35.13.35.35v31.16l32.13-31.34c.13-.13.26-.17.44-.17h12.33c.31,0,.4.22.18.44l-25.94,25.32,25.19,35.25c.18.27.04.44-.22.44h-13.04c-.18,0-.35-.09-.44-.22l-19.71-27.43-10.93,10.71v16.59c0,.22-.13.35-.35.35h-10.93c-.22,0-.35-.13-.35-.35"/>
    <path class="cls-2" d="M308.54,65.67l-10.31-25.11-10.49,25.11h20.8ZM267.89,87.92l25.72-60.79c.09-.22.27-.27.44-.27h10.32c.18,0,.35.04.44.27l25.46,60.79c.09.22,0,.4-.26.4h-11.85c-.18,0-.35-.04-.44-.26l-5.44-13.34h-28.31l-5.58,13.34c-.09.22-.26.26-.44.26h-9.79c-.27,0-.35-.13-.27-.4"/>
    <path class="cls-2" d="M384.32,33.58l-4.26,6.67c-.13.22-.26.22-.48.09-5.84-3.86-12.99-5.97-19.44-5.97-8.3,0-12.29,3.38-12.29,8.65,0,6.98,6.98,8.12,13.08,8.78,12.99,1.4,25.63,3.64,25.63,17.91s-13.52,20.28-26.33,20.28c-9.74,0-19.4-3.16-25.81-8.38-.18-.13-.22-.26-.09-.48l4.39-6.54c.13-.22.27-.22.48-.09,6.67,4.65,14.71,6.45,21.55,6.45,9.22,0,14.57-3.12,14.57-8.91,0-6.5-6.76-7.59-11.1-8.08-15.23-1.76-27.48-5.31-27.48-19.53,0-13.3,10.8-19.09,23.17-19.09,7.95,0,16.99,2.32,24.32,7.77.18.13.22.26.09.48"/>
    <path class="cls-2" d="M94.36,162.62l-5.49-60.75c0-.22.09-.35.31-.35h11.59c.22,0,.4.13.4.35l3.6,43.46,23.44-43.54c.09-.18.22-.26.39-.26h11.81c.22,0,.35.13.35.35l2.63,43.59,24.1-43.67c.09-.18.22-.26.4-.26h10.54c.26,0,.39.22.26.44l-34.19,60.75c-.09.18-.22.26-.39.26h-10.89c-.22,0-.39-.13-.39-.35l-3.16-43.67-23.61,43.76c-.09.18-.22.26-.4.26h-10.88c-.22,0-.4-.13-.4-.35"/>
    <path class="cls-2" d="M213.99,140.32l-10.31-25.1-10.49,25.1h20.81ZM173.35,162.58l25.72-60.79c.09-.22.26-.26.44-.26h10.32c.18,0,.35.04.44.26l25.46,60.79c.09.22,0,.4-.26.4h-11.85c-.18,0-.35-.04-.44-.27l-5.44-13.34h-28.31l-5.58,13.34c-.09.22-.26.27-.44.27h-9.79c-.26,0-.35-.13-.26-.4"/>
    <path class="cls-2" d="M249.79,162.62v-52.01h-20.32c-.22,0-.35-.13-.35-.35v-8.39c0-.22.13-.35.35-.35h52.23c.22,0,.35.13.35.35v8.39c0,.22-.13.35-.35.35h-20.23v52.01c0,.22-.13.35-.35.35h-10.97c-.22,0-.35-.13-.35-.35"/>
    <path class="cls-2" d="M287.92,162.62l-.4-7.68c0-.18.09-.31.18-.44l38.8-43.89h-36.61c-.22,0-.35-.09-.35-.35l.22-8.39c0-.26.13-.35.35-.35h51.05c.22,0,.35.13.35.35l.53,7.73c0,.22-.09.31-.18.44l-38.67,43.81h38.19c.22,0,.35.09.35.35l-.31,8.43c0,.26-.13.35-.35.35h-52.8c-.22,0-.35-.09-.35-.35"/>
    <path class="cls-2" d="M351.95,162.62v-60.75c0-.22.13-.35.35-.35h51.97c.22,0,.35.13.35.35v8.39c0,.22-.13.35-.35.35h-40.69v16.68h35.9c.22,0,.35.13.35.35v8.34c0,.22-.13.35-.35.35h-35.9v17.52h41.13c.22,0,.35.13.35.35v8.43c0,.22-.13.35-.35.35h-52.41c-.22,0-.35-.13-.35-.35"/>
    <path class="cls-2" d="M460.13,162.75l-35.82-43.76v43.63c0,.22-.13.35-.35.35h-9.09c-.22,0-.35-.13-.35-.35v-60.75c0-.22.13-.35.35-.35h9.7c.18,0,.35.09.44.22l35.86,43.81v-43.67c0-.22.13-.35.35-.35h9.13c.22,0,.35.13.35.35v60.75c0,.22-.13.35-.35.35h-9.79c-.18,0-.35-.09-.44-.22"/>
    <path class="cls-2" d="M513.79,153.89c9.35,0,13.74-3.16,13.74-9.13s-3.95-9.22-12.38-9.22h-19.75v18.34h18.39ZM510.06,126.98c10.09,0,14.97-2.59,14.97-8.74,0-5.4-4.08-7.64-10.88-7.64h-18.74v16.37h14.66ZM483.77,162.62v-60.75c0-.22.13-.35.35-.35h32.52c13.61,0,19.84,6.54,19.84,15.05,0,7.02-4.21,12.16-13.04,13.96,10.67,1.14,15.85,6.37,15.85,14.57,0,10.88-8.78,17.86-24.14,17.86h-31.03c-.22,0-.35-.13-.35-.35"/>
    <path class="cls-2" d="M602.13,132.2c0-13.65-8.87-23.13-21.81-23.13s-21.81,9.52-21.81,23.13,8.95,23.35,21.81,23.35,21.81-9.57,21.81-23.35M546.65,132.2c0-18.56,14.4-32.22,33.71-32.22s33.62,13.47,33.62,32.26-14.53,32.44-33.62,32.44-33.71-13.78-33.71-32.48"/>
    <path class="cls-2" d="M624.59,162.62v-60.75c0-.22.13-.35.35-.35h51.97c.22,0,.35.13.35.35v8.39c0,.22-.13.35-.35.35h-40.69v16.68h35.9c.22,0,.35.13.35.35v8.34c0,.22-.13.35-.35.35h-35.9v17.52h41.13c.22,0,.35.13.35.35v8.43c0,.22-.13.35-.35.35h-52.41c-.22,0-.35-.13-.35-.35"/>
    <path class="cls-2" d="M738.12,147.87l4.7,6.63c.13.18.09.35-.09.48-7.07,5.66-15.67,9.7-26.2,9.7-19.62,0-33.93-14-33.93-32.57s14.22-32.13,34.67-32.13c11.76,0,19.71,4.48,24.8,9.04.18.13.18.3.04.48l-4.7,6.37c-.13.22-.31.22-.48.09-6.45-4.96-12.25-6.85-18.65-6.85-14.79,0-23.83,9.96-23.83,23.22s9.75,23.22,23.26,23.22c7.81,0,14.35-3.2,19.93-7.77.18-.13.35-.13.48.09"/>
    <path class="cls-2" d="M751.93,162.62v-60.75c0-.22.13-.35.35-.35h10.93c.22,0,.35.13.35.35v31.16l32.13-31.34c.13-.13.26-.17.44-.17h12.33c.31,0,.4.22.18.44l-25.94,25.33,25.19,35.25c.18.26.04.44-.22.44h-13.04c-.18,0-.35-.09-.44-.22l-19.71-27.43-10.93,10.71v16.59c0,.22-.13.35-.35.35h-10.93c-.22,0-.35-.13-.35-.35"/>
  </g>
  <path class="cls-1" d="M66.86,164.69h-10.04c-.94,0-1.7-.61-1.7-1.37V26.79c0-.76.76-1.37,1.7-1.37h10.04c.94,0,1.7.61,1.7,1.37v136.53c0,.76-.76,1.37-1.7,1.37"/>
</svg>